#!OML:ASF H:\GeneralSubjects\Female5\Project 1\Capture day 1\Session 1\Female5.ASF
:FULLY-SPECIFIED
:DEGREES
356
root 2.9737 14.9046 6.56693 -178.127 -5.93532 174.487
lowerback 16.5387 11.5833 0.457983
upperback -9.34775 13.1997 -10.8021
thorax -16.9747 4.68376 -16.3823
lowerneck -11.25 5.49312 6.14318
upperneck 28.6958 5.48984 -1.11252
head 11.4034 2.49988 -0.840016
rclavicle 5.96354e-014 -1.62208e-013
rhumerus -19.7127 16.4358 -79.2344
rradius 78.234
rwrist -7.65988
rhand -46.5668 -8.56775
rfingers 7.12502
rthumb -19.2908 -37.6309
lclavicle 5.96354e-014 -1.62208e-013
lhumerus -51.6134 18.5959 21.0868
lradius 101.021
lwrist 0.87103
lhand -50.8434 50.5635
lfingers 7.12502
lthumb -23.3984 -640.839
rfemur -30.5008 4.77791 9.26136
rtibia 35.4077
rfoot -16.8475 -20.1694
rtoes -7.44826
lfemur -3.08957 4.35599 -29.2585
ltibia 32.0029
lfoot -42.4194 -10.4516
ltoes -39.1351
357
root 2.92836 14.9325 6.62007 -178.072 -6.70305 175.257
lowerback 16.0878 11.0545 1.16604
upperback -9.54034 12.8335 -10.2925
thorax -16.9749 4.50418 -16.0234
lowerneck -10.6731 5.42671 5.98837
upperneck 28.5063 5.49124 -1.27559
head 11.2121 2.45763 -0.889346
rclavicle 2.08724e-013 -9.22361e-014
rhumerus -21.2746 15.8193 -78.563
rradius 79.276
rwrist -7.2956
rhand -46.3457 -8.97703
rfingers 7.12502
rthumb -19.0781 -38.0613
lclavicle 2.08724e-013 -9.22361e-014
lhumerus -49.6688 20.7996 20.8518
lradius 101.644
lwrist 0.778359
lhand -51.1039 50.7279
lfingers 7.12502
lthumb -23.6483 -640.707
rfemur -30.0325 3.95244 9.61746
rtibia 34.5943
rfoot -16.2742 -19.4978
rtoes -7.75544
lfemur -3.20092 3.41886 -28.8769
ltibia 31.3694
lfoot -42.5107 -8.68327
ltoes -40.7184
358
root 2.91349 14.9698 6.66862 -177.858 -8.18663 175.853
lowerback 15.2375 10.3561 0.980764
upperback -9.55182 12.0123 -9.67007
thorax -16.8516 4.24434 -14.8267
lowerneck -10.8657 5.47687 6.4503
upperneck 28.5268 5.6239 -1.86907
head 11.3015 2.49652 -1.1611
rclavicle 1.12115e-013 -1.22451e-013
rhumerus -23.0584 14.9866 -77.5084
rradius 80.4509
rwrist -7.50465
rhand -46.3172 -9.29399
rfingers 7.12502
rthumb -19.0507 -38.381
lclavicle 1.12115e-013 -1.22451e-013
lhumerus -47.7581 22.5372 21.5633
lradius 102.641
lwrist 0.409207
lhand -51.0762 51.1019
lfingers 7.12502
lthumb -23.6217 -640.329
rfemur -29.4238 3.105 9.56286
rtibia 33.7285
rfoot -15.6479 -19.0208
rtoes -8.47488
lfemur -3.73983 2.27514 -28.5245
ltibia 31.0764
lfoot -41.9931 -7.68099
ltoes -41.6827
359
root 2.91222 15.0125 6.72394 -177.866 -10.1555 177.22
lowerback 14.5968 9.4595 1.19965
upperback -9.3781 11.1436 -8.56972
thorax -16.9325 3.87375 -13.7971
lowerneck -10.9659 5.4374 6.80116
upperneck 28.4815 5.63972 -2.40054
head 11.3352 2.47878 -1.41017
rclavicle 1.31198e-014 -3.65764e-014
rhumerus -25.188 13.7513 -76.2036
rradius 81.5876
rwrist -7.95326
rhand -46.3342 -9.21743
rfingers 7.12502
rthumb -19.0671 -38.3028
lclavicle 1.31198e-014 -3.65764e-014
lhumerus -45.4984 23.5619 23.2711
lradius 103.823
lwrist 0.141523
lhand -50.6216 50.4512
lfingers 7.12502
lthumb -23.1856 -640.924
rfemur -28.3796 2.65636 10.2709
rtibia 32.5782
rfoot -14.8795 -18.9777
rtoes -9.42285
lfemur -4.46077 0.975025 -27.1459
ltibia 31.0234
lfoot -40.9848 -7.90231
ltoes -41.0601
360
root 2.92834 15.0664 6.78125 -178.203 -12.6085 179.303
lowerback 14.3676 8.42367 2.28993
upperback -9.49796 10.2301 -7.67287
thorax -17.1097 3.43061 -13.0891
lowerneck -11.0935 5.34612 7.40599
upperneck 28.7127 5.44514 -2.75522
head 11.4754 2.40473 -1.66932
rclavicle -2.62396e-014 1.36764e-013
rhumerus -27.9847 11.9518 -74.871
rradius 82.6542
rwrist -8.21824
rhand -46.242 -9.45455
rfingers 7.12502
rthumb -18.9784 -38.5487
lclavicle -2.62396e-014 1.36764e-013
lhumerus -41.6348 24.6847 26.2038
lradius 104.303
lwrist -0.145897
lhand -50.9922 51.408
lfingers 7.12502
lthumb -23.5411 -640.013
rfemur -26.7951 2.84263 11.5884
rtibia 30.9717
rfoot -13.4278 -19.6855
rtoes -13.1667
lfemur -5.38678 -0.642423 -24.89
ltibia 31.3215
lfoot -39.9889 -7.78556
ltoes -41.048
